<?xml version="1.0" encoding="UTF-8" standalone="no"?>
<svg
   xmlns:dc="http://purl.org/dc/elements/1.1/"
   xmlns:cc="http://creativecommons.org/ns#"
   xmlns:rdf="http://www.w3.org/1999/02/22-rdf-syntax-ns#"
   xmlns:svg="http://www.w3.org/2000/svg"
   xmlns="http://www.w3.org/2000/svg"
   xmlns:sodipodi="http://sodipodi.sourceforge.net/DTD/sodipodi-0.dtd"
   xmlns:inkscape="http://www.inkscape.org/namespaces/inkscape"
   width="24"
   height="24"
   viewBox="0 0 24 24"
   version="1.1"
   id="svg3749"
   sodipodi:docname="iconmonstr-code-4-white.svg"
   inkscape:version="0.92.2 5c3e80d, 2017-08-06">
  <metadata
     id="metadata3755">
    <rdf:RDF>
      <cc:Work
         rdf:about="">
        <dc:format>image/svg+xml</dc:format>
        <dc:type
           rdf:resource="http://purl.org/dc/dcmitype/StillImage" />
        <dc:title></dc:title>
      </cc:Work>
    </rdf:RDF>
  </metadata>
  <defs
     id="defs3753" />
  <sodipodi:namedview
     pagecolor="#ffffff"
     bordercolor="#666666"
     borderopacity="1"
     objecttolerance="10"
     gridtolerance="10"
     guidetolerance="10"
     inkscape:pageopacity="0"
     inkscape:pageshadow="2"
     inkscape:window-width="1918"
     inkscape:window-height="1078"
     id="namedview3751"
     showgrid="false"
     inkscape:zoom="36.791667"
     inkscape:cx="12"
     inkscape:cy="12"
     inkscape:window-x="0"
     inkscape:window-y="0"
     inkscape:window-maximized="0"
     inkscape:current-layer="svg3749" />
  <path
     d="M23 10.826v2.349c-1.562 0-3 1.312-3 2.857 0 2.181 1.281 5.968-6 5.968v-2.002c4.917 0 3.966-1.6 3.966-3.967 0-2.094 1.211-3.5 2.278-4.031-1.067-.531-2.278-1.438-2.278-3.312 0-2.372.94-4.692-3.966-4.686v-2.002c7.285 0 6 4.506 6 6.688 0 1.544 1.438 2.138 3 2.138zm-19-2.138c0-2.182-1.285-6.688 6-6.688v2.002c-4.906-.007-3.966 2.313-3.966 4.686 0 1.875-1.211 2.781-2.278 3.312 1.067.531 2.278 1.938 2.278 4.031 0 2.367-.951 3.967 3.966 3.967v2.002c-7.281 0-6-3.787-6-5.969 0-1.545-1.438-2.857-3-2.857v-2.349c1.562.001 3-.593 3-2.137z"
     id="path3747"
     style="fill:#ffffff" />
</svg>
