<?xml version="1.0" encoding="UTF-8" standalone="no"?>
<svg
   xmlns:dc="http://purl.org/dc/elements/1.1/"
   xmlns:cc="http://creativecommons.org/ns#"
   xmlns:rdf="http://www.w3.org/1999/02/22-rdf-syntax-ns#"
   xmlns:svg="http://www.w3.org/2000/svg"
   xmlns="http://www.w3.org/2000/svg"
   xmlns:sodipodi="http://sodipodi.sourceforge.net/DTD/sodipodi-0.dtd"
   xmlns:inkscape="http://www.inkscape.org/namespaces/inkscape"
   width="24"
   height="24"
   viewBox="0 0 24 24"
   version="1.1"
   id="svg4772"
   sodipodi:docname="iconmonstr-puzzle-1.svg"
   inkscape:version="0.92.2 5c3e80d, 2017-08-06">
  <metadata
     id="metadata4778">
    <rdf:RDF>
      <cc:Work
         rdf:about="">
        <dc:format>image/svg+xml</dc:format>
        <dc:type
           rdf:resource="http://purl.org/dc/dcmitype/StillImage" />
        <dc:title></dc:title>
      </cc:Work>
    </rdf:RDF>
  </metadata>
  <defs
     id="defs4776" />
  <sodipodi:namedview
     pagecolor="#ffffff"
     bordercolor="#666666"
     borderopacity="1"
     objecttolerance="10"
     gridtolerance="10"
     guidetolerance="10"
     inkscape:pageopacity="0"
     inkscape:pageshadow="2"
     inkscape:window-width="1918"
     inkscape:window-height="1078"
     id="namedview4774"
     showgrid="false"
     inkscape:zoom="9.8333333"
     inkscape:cx="12"
     inkscape:cy="12"
     inkscape:window-x="0"
     inkscape:window-y="0"
     inkscape:window-maximized="0"
     inkscape:current-layer="svg4772" />
  <path
     d="M2.479 18c.978 0 1.309-.524 1.708-.922.813-.816 1.813-.469 1.813.847v6.075h6.075c1.315 0 1.663-1 .847-1.813-.398-.399-.922-.73-.922-1.708 0-1.087 1.108-2.479 3-2.479s3 1.392 3 2.479c0 .978-.524 1.309-.922 1.708-.816.813-.469 1.813.847 1.813h6.075v-6.075c0-1.315-1-1.663-1.813-.847-.399.398-.73.922-1.708.922-1.087 0-2.479-1.108-2.479-3s1.392-3 2.479-3c.978 0 1.309.524 1.708.922.813.816 1.813.469 1.813-.847v-6.075h-6.075c-1.315 0-1.663-1-.847-1.813.398-.399.922-.73.922-1.708 0-1.087-1.108-2.479-3-2.479s-3 1.392-3 2.479c0 .978.524 1.309.922 1.708.816.813.469 1.813-.847 1.813h-6.075v6.075c0 1.315-1 1.663-1.813.847-.399-.398-.73-.922-1.708-.922-1.087 0-2.479 1.108-2.479 3s1.392 3 2.479 3z"
     id="path4770"
     style="fill:#ffffff" />
</svg>
